<svg viewBox="0 0 80 80" xmlns="http://www.w3.org/2000/svg">

  <!-- M -->
  <g transform="translate(0, 0)">
    <polygon points="10,70 10,20 20,10 30,10 40,20 50,10 60,10 70,20 70,70 60,80 50,80 40,70 30,80 20,80 10,70" fill="#222831" stroke="#393e46" stroke-width=".9" />
    <polygon
      points="50,70 50,40 40,60 30,40 30,70 20,70 20,20 30,20 40,40 50,20 60,20 60,70" fill="#0092ca" stroke="none" stroke-width=".9" />
    <polygon points="20,10 30,0 40,0 50,10 40,20 30,10" fill="#222831" stroke="#393e46" stroke-width=".9" />
    <polygon points="70,70 70,20 60,10 50,10 60,0 70,0 80,10 80,60" fill="#222831" stroke="#393e46" stroke-width=".9" />
    <line x1="30" y1="10" x2="40" y2="0" stroke="#393e46" />
    <line x1="60" y1="10" x2="70" y2="0" stroke="#393e46" />
    <line x1="70" y1="20" x2="80" y2="10" stroke="#393e46" />
  </g>

</svg>